HIERARCHY
ROOT Hips
{
	OFFSET 0.00000 0.00000 0.00000
	CHANNELS 6 Xposition Yposition Zposition Yrotation Zrotation Xrotation 
	JOINT Lumbar
	{
		OFFSET 0 0 0
		CHANNELS 3 Zrotation Xrotation Yrotation
		JOINT Neck
		{
			OFFSET 0.00 0.2701 0.00
			CHANNELS 3 Zrotation Xrotation Yrotation
			End Site
			{
				OFFSET 0.00 0.1379 0.00
			}
		}
		JOINT RightShoulder
		{
			OFFSET 0.0119 0.2289 0.1181
			CHANNELS 3 Zrotation Xrotation Yrotation
			JOINT RightElbow
			{
				OFFSET 0.00 -0.1475 0.00
				CHANNELS 2 Zrotation Yrotation
				JOINT RightWrist
				{
					OFFSET 0.00 -0.1605 0.00
					CHANNELS 2 Zrotation Xrotation
					End Site
					{
						OFFSET 0.0040 -0.1068 0.0006
					}
				}
			}
		}
		JOINT LeftShoulder
		{
			OFFSET 0.0119 0.2289 -0.1181
			CHANNELS 3 Zrotation Xrotation Yrotation
			JOINT LeftElbow
			{
				OFFSET 0.00 -0.1475 0.00
				CHANNELS 2 Zrotation Yrotation
				JOINT LeftWrist
				{
					OFFSET 0.00 -0.1605 0.00
					CHANNELS 2 Zrotation Xrotation
					End Site
					{
						OFFSET 0.0040 -0.1068 -0.0006
					}
				}
			}
		}
	}
	JOINT RightHip
	{
		OFFSET 0.0316 -0.0424 0.0458
		CHANNELS 3 Zrotation Xrotation Yrotation
		JOINT RightKnee
		{
			OFFSET 0.00 -0.2438 0.00
			CHANNELS 1 Zrotation
			JOINT RightAnkle
			{
				OFFSET 0.00 -0.2449 0.00
				CHANNELS 3 Zrotation Xrotation Yrotation
				End Site
				{
					OFFSET 0.1237 -0.0542 0.0051
				}
			}
		}
	}
	JOINT LeftHip
	{
		OFFSET 0.0316 -0.0424 -0.0458
		CHANNELS 3 Zrotation Xrotation Yrotation
		JOINT LeftKnee
		{
			OFFSET 0.00 -0.2438 0.00
			CHANNELS 1 Zrotation
			JOINT LeftAnkle
			{
				OFFSET 0.00 -0.2449 0.00
				CHANNELS 3 Zrotation Xrotation Yrotation
				End Site
				{
					OFFSET 0.1237 -0.0542 -0.0051
				}
			}
		}
	}
}
MOTION
Frames: 22
Frame Time: 0.02
-0.00137 -6e-05 -0.00055 174.50016 -39.71696 -4.59854 47.5573 0.39792 -8.14963 -2.71635 6.41545 -1.16611 -36.14264 -4.56577 -11.58075 24.69849 90.7192 4.44192 1.88931 -49.48555 24.22486 -14.46401 47.28935 -80.34893 6.74508 2.07528 42.65893 0.32614 -11.0365 -18.99218 -6.31578 -1.21363 -2.7997 46.03593 5.50691 12.97746 -25.37951 -6.16995 1.64688 2.99579
-0.00108 -5e-05 -0.0005 174.55632 -39.6829 -4.5529 47.53517 0.43551 -8.16098 -2.69577 6.29006 -1.16741 -35.45779 -4.8723 -11.59027 24.99575 90.77363 4.41947 1.88663 -48.5474 23.04802 -12.27806 47.17897 -85.62963 8.80142 1.24108 42.6581 0.29765 -11.03987 -19.00125 -6.31134 -1.22022 -2.80494 46.04828 5.43063 12.75853 -25.37903 -6.17137 1.65157 3.00199
-0.00078 -3e-05 -0.00044 174.61252 -39.64887 -4.5073 47.51302 0.47306 -8.17223 -2.67521 6.16482 -1.1687 -34.77388 -5.17867 -11.5994 25.29286 90.82777 4.39707 1.88399 -47.60923 21.87566 -10.10225 47.06903 -90.88721 10.84856 0.41047 42.65724 0.26916 -11.04328 -19.0103 -6.30691 -1.22679 -2.81018 46.06059 5.35447 12.54017 -25.37855 -6.17279 1.65626 3.00816
-0.00048 -1e-05 -0.00039 174.66854 -39.6149 -4.46179 47.49095 0.51054 -8.18354 -2.6547 6.03979 -1.16999 -34.09096 -5.48437 -11.60884 25.58934 90.88201 4.37469 1.88133 -46.67352 20.70263 -7.92366 46.95895 -96.15037 12.89805 -0.42096 42.65641 0.24075 -11.04666 -19.01934 -6.30248 -1.23336 -2.81541 46.07289 5.27841 12.32189 -25.37807 -6.1742 1.66095 3.01434
-0.00018 0 -0.00033 174.72444 -39.58095 -4.41628 47.46894 0.54803 -8.19495 -2.63419 5.91469 -1.17128 -33.40749 -5.78999 -11.61875 25.88566 90.93658 4.35227 1.87863 -45.73884 19.52468 -5.73343 46.84856 -101.43968 14.95798 -1.25647 42.65563 0.21236 -11.04997 -19.02842 -6.29806 -1.23993 -2.82065 46.08526 5.20226 12.1031 -25.3776 -6.17562 1.66564 3.02054
0.00012 2e-05 -0.00027 174.78127 -39.54673 -4.37046 47.44648 0.58572 -8.20585 -2.61352 5.78917 -1.17258 -32.72269 -6.09796 -11.62623 26.18439 90.9898 4.32993 1.87608 -44.79339 18.36407 -3.5879 46.73966 -106.63059 16.97822 -2.07678 42.65461 0.18367 -11.05359 -19.0374 -6.29362 -1.24653 -2.82587 46.09744 5.12609 11.88566 -25.37708 -6.17705 1.67032 3.02668
0.00042 4e-05 -0.00022 174.83615 -39.51307 -4.32535 47.42499 0.62292 -8.21782 -2.59321 5.66463 -1.17385 -32.04144 -6.40071 -11.63869 26.47803 91.0457 4.30744 1.87324 -43.8708 17.17024 -1.35554 46.62745 -112.01212 19.07551 -2.92648 42.65404 0.15564 -11.05661 -19.04656 -6.28921 -1.25306 -2.83112 46.10994 5.05007 11.6657 -25.37667 -6.17844 1.67502 3.03293
0.00072 5e-05 -0.00016 174.89285 -39.47892 -4.27954 47.40251 0.66069 -8.22871 -2.57254 5.5392 -1.17516 -31.35671 -6.70852 -11.64637 26.77619 91.0991 4.28509 1.87065 -42.92689 16.00632 0.79809 46.5191 -117.22087 21.10282 -3.74958 42.65312 0.12696 -11.06013 -19.05555 -6.28478 -1.25965 -2.83635 46.12221 4.97387 11.44818 -25.37615 -6.17988 1.67969 3.03907
0.00102 7e-05 -0.0001 174.95177 -39.44407 -4.23302 47.37917 0.69872 -8.23861 -2.55154 5.41255 -1.17646 -30.66806 -7.0218 -11.64889 27.0808 91.14957 4.26289 1.86847 -41.95693 14.88153 2.85044 46.41223 -122.20749 23.04066 -4.53835 42.6515 0.09762 -11.06449 -19.06435 -6.28028 -1.26634 -2.84154 46.13395 4.89752 11.23307 -25.37553 -6.18133 1.68438 3.04511
0.0013 8e-05 -7e-05 174.99791 -39.41293 -4.191 47.36185 0.73393 -8.25521 -2.53274 5.29252 -1.17763 -30.0029 -7.3015 -11.68314 27.35112 91.21723 4.23977 1.86425 -41.13682 13.53927 5.47037 46.28711 -128.43931 25.48147 -5.51916 42.65308 0.0725 -11.06472 -19.0743 -6.27606 -1.27253 -2.84691 46.14801 4.82226 11.00234 -25.37557 -6.18258 1.68914 3.05184
0.00163 0.0001 2e-05 175.07097 -39.37418 -4.13924 47.33114 0.77592 -8.25706 -2.50914 5.15882 -1.17922 -29.28777 -7.65328 -11.6492 27.69189 91.24841 4.21862 1.86412 -40.00097 12.65092 6.90269 46.20672 -132.06538 26.86884 -6.09838 42.64846 0.03819 -11.07319 -19.0818 -6.27131 -1.27974 -2.85192 46.15764 4.7446 10.80571 -25.37418 -6.18434 1.69362 3.05705
0.00207 0.00014 0.00025 175.21887 -39.31268 -4.06231 47.26872 0.83005 -8.2231 -2.47336 4.98459 -1.18092 -28.43625 -8.19489 -11.43695 28.24282 91.1804 4.20276 1.87707 -37.98642 13.06218 4.96051 46.19985 -128.28848 25.27104 -5.53413 42.62252 -0.01936 -11.10849 -19.0826 -6.26473 -1.28986 -2.85587 46.15161 4.66112 10.69436 -25.36902 -6.18679 1.69845 3.05844
0.00257 0.00019 0.00053 175.39351 -39.24404 -3.97529 47.19181 0.89232 -8.17357 -2.43251 4.79728 -1.18327 -27.53406 -8.81013 -11.15504 28.86063 91.07562 4.18882 1.89375 -35.65791 13.92014 1.84613 46.24746 -121.9385 22.63176 -4.57356 42.59139 -0.08655 -11.15132 -19.08092 -6.2577 -1.30097 -2.85948 46.14199 4.5751 10.6189 -25.36239 -6.18987 1.70281 3.05823
0.00306 0.00023 0.00079 175.55545 -39.17969 -3.89186 47.11839 0.95493 -8.12795 -2.39341 4.61781 -1.186 -26.655 -9.39719 -10.8987 29.43785 90.98704 4.17423 1.90752 -33.47998 14.53718 -0.655 46.3017 -116.93514 20.53224 -3.82237 42.56517 -0.15059 -11.18794 -19.08031 -6.2511 -1.31156 -2.86331 46.13605 4.48977 10.5323 -25.35632 -6.19309 1.70666 3.0585
0.00349 0.00027 0.00102 175.72026 -39.11026 -3.81264 47.05848 0.99996 -8.0952 -2.35693 4.42992 -1.18579 -25.7768 -9.96309 -10.66609 30.06142 90.90043 4.15909 1.92653 -31.26459 15.31131 -3.49409 46.22173 -111.19191 18.15492 -2.9499 42.5272 -0.20932 -11.23627 -19.07988 -6.24349 -1.3225 -2.86689 46.12061 4.4064 10.42352 -25.35067 -6.19449 1.71354 3.0598
0.00405 0.00033 0.00133 175.88482 -39.05053 -3.72223 46.96643 1.08418 -8.03253 -2.31342 4.25696 -1.19196 -24.88304 -10.58926 -10.36983 30.60033 90.80111 4.14507 1.93541 -29.05716 15.86899 -5.91265 46.43647 -106.36264 16.10326 -2.2322 42.51367 -0.28154 -11.2621 -19.07858 -6.23795 -1.33289 -2.87087 46.12516 4.31834 10.36996 -25.34383 -6.19985 1.71404 3.05859
0.00493 0.00043 0.00179 176.04717 -39.01274 -3.60359 46.79364 1.26921 -7.88608 -2.25519 4.12448 -1.21476 -23.97398 -11.37364 -9.89559 30.92258 90.67505 4.13783 1.91625 -26.91343 15.6759 -6.82982 47.43155 -104.853 15.26571 -2.07584 42.5592 -0.38735 -11.22332 -19.07475 -6.23779 -1.3419 -2.87631 46.17735 4.21779 10.45471 -25.33369 -6.21576 1.6967 3.05074
0.00594 0.00056 0.00232 176.20736 -38.98632 -3.47402 46.588 1.49438 -7.71106 -2.18949 4.00832 -1.24411 -23.04813 -12.21384 -9.36338 31.15093 90.53773 4.13101 1.88665 -24.79587 15.25737 -7.29199 48.72437 -104.32796 14.78362 -2.08349 42.63154 -0.50666 -11.162 -19.07028 -6.23985 -1.35021 -2.8821 46.2516 4.11252 10.59424 -25.32245 -6.23566 1.67308 3.04047
0.0069 0.00068 0.00283 176.36527 -38.95884 -3.34929 46.39472 1.70477 -7.55228 -2.12486 3.88715 -1.27104 -22.1201 -13.02254 -8.87028 31.40048 90.40586 4.12107 1.8612 -22.68866 14.9709 -7.99825 49.89501 -103.23614 14.09642 -1.99022 42.6977 -0.62062 -11.1111 -19.06656 -6.24117 -1.35862 -2.88757 46.32102 4.00964 10.7129 -25.31195 -6.25389 1.6525 3.03133
0.00782 0.0008 0.00333 176.53805 -38.91322 -3.22467 46.21252 1.90096 -7.37887 -2.06962 3.75493 -1.29573 -21.232 -13.8614 -8.32058 31.74356 90.27081 4.12297 1.83821 -20.47391 14.57595 -8.59167 51.0151 -102.53287 13.54591 -1.98894 42.73745 -0.73153 -11.0587 -19.06074 -6.24126 -1.36815 -2.89375 46.36745 3.90609 10.81805 -25.30045 -6.27155 1.63088 3.02188
0.00886 0.00092 0.00385 176.67877 -38.90886 -3.09745 45.99868 2.136 -7.22978 -1.99342 3.65033 -1.32654 -20.25704 -14.6476 -7.87623 31.868 90.14079 4.10105 1.80779 -18.49678 14.34645 -9.29208 52.30674 -101.31945 12.82232 -1.84714 42.83975 -0.85196 -11.00526 -19.05929 -6.24455 -1.37497 -2.89846 46.46822 3.8023 10.96105 -25.29074 -6.29133 1.61022 3.01269
0.01019 0.00105 0.00439 176.73282 -39.01012 -2.96489 45.71347 2.46985 -7.15091 -1.8586 3.61347 -1.3732 -19.04932 -15.29221 -7.73554 31.41617 90.02674 4.00718 1.75867 -17.14395 14.63604 -10.43298 54.02995 -98.19191 11.4203 -1.21831 43.09924 -0.99445 -10.94272 -19.06932 -6.25525 -1.37603 -2.89976 46.70372 3.70399 11.22119 -25.28656 -6.31603 1.59119 3.00348
